<?xml version="1.0" encoding="UTF-8" standalone="no"?>
<!-- Created with Inkscape (http://www.inkscape.org/) -->

<svg
   xmlns:dc="http://purl.org/dc/elements/1.1/"
   xmlns:cc="http://creativecommons.org/ns#"
   xmlns:rdf="http://www.w3.org/1999/02/22-rdf-syntax-ns#"
   xmlns:svg="http://www.w3.org/2000/svg"
   xmlns="http://www.w3.org/2000/svg"
   xmlns:sodipodi="http://sodipodi.sourceforge.net/DTD/sodipodi-0.dtd"
   xmlns:inkscape="http://www.inkscape.org/namespaces/inkscape"
   width="677.73755"
   height="181.53474"
   id="svg2"
   version="1.1"
   inkscape:version="0.48.4 r9939"
   sodipodi:docname="distributed_dart_logo.svg"
   inkscape:export-filename="C:\Users\Jacob\Desktop\logo.png"
   inkscape:export-xdpi="212.47"
   inkscape:export-ydpi="212.47">
  <defs
     id="defs4" />
  <sodipodi:namedview
     id="base"
     pagecolor="#ffffff"
     bordercolor="#666666"
     borderopacity="1.0"
     inkscape:pageopacity="1"
     inkscape:pageshadow="2"
     inkscape:zoom="1"
     inkscape:cx="406.22433"
     inkscape:cy="99.273453"
     inkscape:document-units="px"
     inkscape:current-layer="g3030"
     showgrid="false"
     inkscape:window-width="1538"
     inkscape:window-height="877"
     inkscape:window-x="54"
     inkscape:window-y="-8"
     inkscape:window-maximized="1"
     fit-margin-top="0"
     fit-margin-left="0"
     fit-margin-right="0"
     fit-margin-bottom="0"
     showguides="true"
     inkscape:guide-bbox="true" />
  <metadata
     id="metadata7">
    <rdf:RDF>
      <cc:Work
         rdf:about="">
        <dc:format>image/svg+xml</dc:format>
        <dc:type
           rdf:resource="http://purl.org/dc/dcmitype/StillImage" />
        <dc:title></dc:title>
      </cc:Work>
    </rdf:RDF>
  </metadata>
  <g
     inkscape:label="Layer 1"
     inkscape:groupmode="layer"
     id="layer1"
     transform="translate(-42.817752,-822.5948)">
    <g
       transform="matrix(1.25,0,0,-1.25,99.044446,370.14025)"
       inkscape:label="ink_ext_XXXXXX"
       id="g3028">
      <g
         transform="scale(0.1,0.1)"
         id="g3030">
        <path
           id="path3188"
           style="fill:#4fc3ae;fill-opacity:1;fill-rule:nonzero;stroke:none"
           d="m 896.42298,-4604.4786 55.72182,-22.8752 -118.80141,283.8932 -6.02336,13.059 c -2.80794,6.1697 -6.92075,12.7153 -11.88128,19.2346 l -357.11697,-20.3291 -63.39246,-66.9709 0.009,-0.1001 501.48477,-205.9114"
           inkscape:connector-curvature="0" />
        <path
           id="path3190"
           style="fill:#7bd2be;fill-opacity:1;fill-rule:nonzero;stroke:none"
           d="m 394.92932,-4398.467 63.39246,66.9709 357.07929,20.328 c -15.47108,20.3349 -39.3609,40.4696 -59.36809,48.5718 l -143.7614,58.5562 -225.99911,-94.0961 8.66584,-100.431 -0.009,0.1001 z m 420.50943,87.3 -0.0395,0 c 0.089,-0.1186 0.19967,-0.2353 0.28962,-0.3589 -0.089,0.1236 -0.15914,0.2379 -0.25206,0.3602"
           inkscape:connector-curvature="0" />
        <path
           id="path3192"
           style="fill:#298bd1;fill-opacity:1;fill-rule:nonzero;stroke:none"
           d="m 952.15023,-4627.3592 44.61821,233.2947 c 5.56526,14.9492 -8.67821,35.0005 -31.68126,44.5298 l -99.27201,41.2358 -50.37642,-2.8681 c 4.96053,-6.5193 9.07334,-13.0649 11.88128,-19.2346 l 6.02336,-13.059 118.80141,-283.8932 0,-0.012"
           inkscape:connector-curvature="0" />
        <path
           id="path3194"
           style="fill:#0f80cc;fill-opacity:1;fill-rule:nonzero;stroke:none"
           d="m 632.90762,-4756.466 c 8.05339,1.1748 15.56432,2.9628 21.9838,5.4084 l 14.24522,5.3652 283.01359,118.3332 -557.27411,228.7691 -0.0306,-0.028 -1.96407,-92.2858 240.02576,-265.5622"
           inkscape:connector-curvature="0" />
        <path
           id="path3196"
           style="fill:#298bd1;fill-opacity:1;fill-rule:nonzero;stroke:none"
           d="m 556.51645,-4749.2116 c 20.29918,-8.4228 51.07502,-10.9186 76.36715,-7.2262 l -240.00186,265.534 1.96409,92.2858 0.0306,0.028 -73.08835,-62.2042 96.47691,-231.3315 138.2517,-57.086 z m 76.76609,-7.1817 c -0.13047,-0.02 -0.26787,-0.03 -0.39933,-0.049 l 0.0198,-0.03 c 0.12948,0.02 0.24414,0.049 0.37462,0.069"
           inkscape:connector-curvature="0" />
        <path
           id="path3198"
           style="fill:#7bd2be;fill-opacity:1;fill-rule:nonzero;stroke:none"
           d="m 666.54454,-4793.6834 99.59483,-40.4667 c 23.01653,-9.333 47.27837,-5.1019 53.80189,9.416 l 132.20897,197.3749 -283.01359,-118.3332 -14.24522,-5.3652 c -6.41948,-2.4456 -13.93041,-4.2336 -21.9838,-5.4084 l 33.63692,-37.2174"
           inkscape:connector-curvature="0" />
        <path
           inkscape:connector-curvature="0"
           d="m 20.842761,-4970.3623 -22.8787839,-55.7205 -118.5130071,284.0137 -5.05908,13.4619 c -2.41671,6.333 -4.18393,13.8587 -5.33687,21.9694 l 265.40264,239.8066 92.19485,-1.9547 0.0652,-0.077 -205.874619,-501.4998"
           style="fill:#4fc3ae;fill-opacity:1;fill-rule:nonzero;stroke:none"
           id="path3200" />
        <path
           inkscape:connector-curvature="0"
           d="m 226.65251,-4468.7859 -92.19485,1.9547 -265.37532,-239.7808 c -3.59729,25.2968 -1.13648,56.4428 7.15736,76.3714 l 59.354865,143.4336 225.754695,94.6808 65.36813,-76.7364 -0.0652,0.077 z m -357.59749,-237.8519 0.0277,0.03 c 0.0227,-0.1453 0.0267,-0.3074 0.0514,-0.4587 -0.0247,0.1503 -0.0573,0.2808 -0.0791,0.433"
           style="fill:#7bd2be;fill-opacity:1;fill-rule:nonzero;stroke:none"
           id="path3202" />
        <path
           inkscape:connector-curvature="0"
           d="m -2.035887,-5026.0905 -197.343263,132.1848 c -14.54708,6.5449 -18.80528,30.7688 -9.42165,53.8314 l 40.41672,99.6085 37.4391,33.828 c 1.15294,-8.1107 2.92016,-15.6364 5.33687,-21.9694 l 5.05908,-13.4619 118.5130071,-284.0137 0.00371,-0.012"
           style="fill:#298bd1;fill-opacity:1;fill-rule:nonzero;stroke:none"
           id="path3204" />
        <path
           inkscape:connector-curvature="0"
           d="m 314.14935,-4889.6674 c -6.49485,-4.9045 -13.04472,-8.9924 -19.29573,-11.8411 l -13.82712,-6.3657 -283.062387,-118.2163 228.813267,557.2561 0.0415,0 67.04217,-63.4498 20.28863,-357.3851"
           style="fill:#0f80cc;fill-opacity:1;fill-rule:nonzero;stroke:none"
           id="path3206" />
        <path
           inkscape:connector-curvature="0"
           d="m 362.66622,-4830.217 c -8.27087,-20.3617 -28.12075,-44.0124 -48.52004,-59.4137 l -20.28545,357.3485 -67.04219,63.4496 -0.0405,0 95.61642,8.2934 96.8018,-231.1956 -56.52939,-138.4802 z m -48.83202,-59.666 c 0.10873,0.079 0.20856,0.171 0.31195,0.2521 l 0.004,-0.039 c -0.10268,-0.079 -0.20659,-0.1394 -0.31522,-0.2155"
           style="fill:#298bd1;fill-opacity:1;fill-rule:nonzero;stroke:none"
           id="path3208" />
        <path
           inkscape:connector-curvature="0"
           d="m 316.99396,-4939.7521 -41.19082,-99.2975 c -9.53279,-22.9345 -29.59139,-37.224 -44.50493,-31.664 l -233.334097,44.6231 283.062387,118.2163 13.82712,6.3657 c 6.25101,2.8487 12.80088,6.9366 19.29573,11.8411 l 2.84461,-50.0847"
           style="fill:#7bd2be;fill-opacity:1;fill-rule:nonzero;stroke:none"
           id="path3210" />
        <path
           inkscape:connector-curvature="0"
           d="m 527.31737,-3721.1885 22.87884,55.7205 118.51303,-284.0138 5.05898,-13.4618 c 2.41676,-6.3331 4.1839,-13.8588 5.33693,-21.9695 l -265.40265,-239.8066 -92.19486,1.9548 -0.0652,0.077 205.87463,501.4998"
           style="fill:#4fc3ae;fill-opacity:1;fill-rule:nonzero;stroke:none"
           id="path3212" />
        <path
           inkscape:connector-curvature="0"
           d="m 321.50764,-4222.7649 92.19486,-1.9548 265.37537,239.7806 c 3.59716,-25.2966 1.13632,-56.4426 -7.15746,-76.3712 l -59.35486,-143.4336 -225.75471,-94.6808 -65.36808,76.7364 0.0652,-0.077 z m 357.59751,237.8518 -0.0296,-0.026 c -0.0198,0.1456 -0.0297,0.3078 -0.0494,0.4584 0.0198,-0.1506 0.0593,-0.2806 0.0791,-0.4324"
           style="fill:#7bd2be;fill-opacity:1;fill-rule:nonzero;stroke:none"
           id="path3214" />
        <path
           inkscape:connector-curvature="0"
           d="m 550.19611,-3665.4606 197.34325,-132.1846 c 14.547,-6.5449 18.80524,-30.7687 9.42153,-53.8316 l -40.41669,-99.6084 -37.43905,-33.8279 c -1.15303,8.1107 -2.92017,15.6364 -5.33693,21.9695 l -5.05898,13.4618 -118.51303,284.0138 0,0.012"
           style="fill:#298bd1;fill-opacity:1;fill-rule:nonzero;stroke:none"
           id="path3216" />
        <path
           inkscape:connector-curvature="0"
           d="m 234.01077,-3801.8836 c 6.49485,4.9045 13.04472,8.9925 19.29574,11.8412 l 13.82713,6.3657 283.06247,118.2161 -228.81334,-557.2558 -0.0405,0 -67.04219,63.4497 -20.28866,357.3851"
           style="fill:#0f80cc;fill-opacity:1;fill-rule:nonzero;stroke:none"
           id="path3218" />
        <path
           inkscape:connector-curvature="0"
           d="m 185.49392,-3861.3339 c 8.27087,20.3615 28.12075,44.0124 48.52004,59.4135 l 20.28546,-357.3483 67.04218,-63.4496 0.0405,0 -95.61642,-8.2934 -96.80184,231.1956 56.52942,138.4801 z m 48.83202,59.6659 c -0.10861,-0.077 -0.20857,-0.1711 -0.31196,-0.2525 l -0.004,0.037 c 0.10279,0.082 0.20648,0.1398 0.31521,0.2157"
           style="fill:#298bd1;fill-opacity:1;fill-rule:nonzero;stroke:none"
           id="path3220" />
        <path
           inkscape:connector-curvature="0"
           d="m 231.16619,-3751.7989 41.19081,99.2976 c 9.53276,22.9345 29.59137,37.224 44.50494,31.6641 l 233.33417,-44.6234 -283.06247,-118.2161 -13.82713,-6.3657 c -6.25102,-2.8487 -12.80089,-6.9367 -19.29574,-11.8412 l -2.84458,50.0847"
           style="fill:#7bd2be;fill-opacity:1;fill-rule:nonzero;stroke:none"
           id="path3222" />
        <path
           id="path3224"
           style="fill:#4fc3ae;fill-opacity:1;fill-rule:nonzero;stroke:none"
           d="m -348.2628,-4087.0723 -55.72191,22.8752 118.80152,-283.8932 6.02331,-13.0589 c 2.80787,-6.1697 6.92072,-12.7153 11.88133,-19.2348 l 357.1169,20.3293 63.39251,66.9709 -0.009,0.1001 -501.48467,205.9114"
           inkscape:connector-curvature="0" />
        <path
           id="path3226"
           style="fill:#7bd2be;fill-opacity:1;fill-rule:nonzero;stroke:none"
           d="m 153.23086,-4293.0838 -63.39251,-66.9709 -357.07926,-20.328 c 15.47107,-20.335 39.36083,-40.4697 59.3681,-48.5719 l 143.761426,-58.5562 225.999064,94.0963 -8.66582,100.4308 0.009,-0.1001 z m -420.50941,-87.3002 0.0376,0 c -0.088,0.1187 -0.19997,0.2355 -0.28972,0.359 0.0899,-0.1236 0.15905,-0.2381 0.25206,-0.3603"
           inkscape:connector-curvature="0" />
        <path
           id="path3228"
           style="fill:#298bd1;fill-opacity:1;fill-rule:nonzero;stroke:none"
           d="m -403.99004,-4064.1918 -44.61828,-233.2945 c -5.56517,-14.9493 8.67805,-35.0005 31.68117,-44.5299 l 99.27206,-41.2359 50.37654,2.8681 c -4.96061,6.5195 -9.07346,13.0651 -11.88133,19.2348 l -6.02331,13.0589 -118.80152,283.8932 -0.004,0.012"
           inkscape:connector-curvature="0" />
        <path
           id="path3230"
           style="fill:#0f80cc;fill-opacity:1;fill-rule:nonzero;stroke:none"
           d="m -84.747464,-3935.0849 c -8.053386,-1.1749 -15.564426,-2.9628 -21.983796,-5.4086 l -14.24527,-5.365 -283.01351,-118.3333 557.27406,-228.7689 0.0306,0.028 1.96408,92.2858 -240.02587,265.5622"
           inkscape:connector-curvature="0" />
        <path
           id="path3232"
           style="fill:#298bd1;fill-opacity:1;fill-rule:nonzero;stroke:none"
           d="m -8.3562756,-3942.3393 c -20.2992534,8.4228 -51.0751124,10.9185 -76.3672184,7.2262 l 240.001894,-265.5339 -1.96406,-92.2859 -0.0306,-0.028 73.08835,62.2043 -96.47695,231.3312 -138.2516968,57.0859 z m -76.7660944,7.1816 c 0.130376,0.024 0.268364,0.028 0.398839,0.045 l -0.02372,0.028 c -0.129882,-0.016 -0.244443,-0.048 -0.374918,-0.073"
           inkscape:connector-curvature="0" />
        <path
           id="path3234"
           style="fill:#7bd2be;fill-opacity:1;fill-rule:nonzero;stroke:none"
           d="m -118.38438,-3897.8675 -99.59492,40.4666 c -23.0165,9.3329 -47.2783,5.102 -53.80179,-9.416 l -132.20895,-197.3749 283.01351,118.3333 14.24527,5.365 c 6.41937,2.4458 13.93041,4.2337 21.983796,5.4086 l -33.636916,37.2174"
           inkscape:connector-curvature="0" />
        <path
           inkscape:connector-curvature="0"
           d="m 537.56333,-4966.1097 23.79286,-55.3362 113.82225,285.9256 4.83677,13.5434 c 2.31218,6.372 3.95538,13.926 4.97457,22.0545 l -269.3137,235.4058 -92.15023,-3.472 -0.0643,-0.078 214.1011,-498.0433"
           style="fill:#4fc3ae;fill-opacity:1;fill-rule:nonzero;stroke:none"
           id="path3236" />
        <path
           inkscape:connector-curvature="0"
           d="m 323.52585,-4467.9886 92.15023,3.472 269.28592,-235.3805 c 3.18034,25.3526 0.20758,56.4538 -8.41337,76.2431 l -61.70768,142.4373 -227.28244,90.9522 -64.09623,-77.8019 0.0633,0.078 z m 361.46393,-231.9338 -0.0296,0.03 c -0.0198,-0.1453 -0.0198,-0.3084 -0.0395,-0.4597 0.0198,0.1513 0.0494,0.2818 0.0692,0.434"
           style="fill:#7bd2be;fill-opacity:1;fill-rule:nonzero;stroke:none"
           id="path3238" />
        <path
           inkscape:connector-curvature="0"
           d="m 561.35619,-5021.4536 195.14087,135.415 c 14.43728,6.7836 18.29631,31.0741 8.53426,53.9794 l -42.05059,98.9295 -37.99095,33.2073 c -1.01919,-8.1285 -2.66239,-15.6825 -4.97457,-22.0545 l -4.83677,-13.5434 -113.82225,-285.9256 0,-0.012"
           style="fill:#298bd1;fill-opacity:1;fill-rule:nonzero;stroke:none"
           id="path3240" />
        <path
           inkscape:connector-curvature="0"
           d="m 242.9683,-4890.2531 c 6.57471,-4.797 13.19094,-8.7765 19.48801,-11.5221 l 13.93005,-6.1373 284.96983,-113.5411 -237.95438,553.4144 -0.0415,0 -65.98874,-64.5446 -14.40359,-357.6707"
           style="fill:#0f80cc;fill-opacity:1;fill-rule:nonzero;stroke:none"
           id="path3242" />
        <path
           inkscape:connector-curvature="0"
           d="m 193.47949,-4831.6093 c 8.60489,-20.2227 28.84135,-43.5437 49.4914,-58.607 l 14.40101,357.6337 65.98872,64.5446 0.0415,0 -95.73998,6.7185 -92.98336,-232.7576 58.80102,-137.5309 z m 49.80749,-58.8543 c -0.10997,0.069 -0.21143,0.1681 -0.31611,0.2472 l -0.004,-0.04 c 0.10403,-0.079 0.20876,-0.1364 0.31867,-0.2105"
           style="fill:#298bd1;fill-opacity:1;fill-rule:nonzero;stroke:none"
           id="path3244" />
        <path
           inkscape:connector-curvature="0"
           d="m 240.94846,-4940.3781 42.81959,-98.6062 c 9.90896,-22.7743 30.20005,-36.7317 45.02004,-30.9271 l 232.5681,48.4578 -284.96983,113.5411 -13.93005,6.1373 c -6.29707,2.7456 -12.9133,6.7251 -19.48801,11.5221 l -2.01984,-50.125"
           style="fill:#7bd2be;fill-opacity:1;fill-rule:nonzero;stroke:none"
           id="path3246" />
        <path
           id="path3248"
           style="fill:#4fc3ae;fill-opacity:1;fill-rule:nonzero;stroke:none"
           d="m -343.92042,-4614.687 -55.33785,-23.7892 114.11271,285.8102 5.8076,13.1564 c 2.70593,6.215 6.71049,12.8273 11.56311,19.4277 l 357.403143,-14.4487 64.486187,-65.9185 -0.007,-0.1001 -498.02758,-214.1376"
           inkscape:connector-curvature="0" />
        <path
           id="path3250"
           style="fill:#7bd2be;fill-opacity:1;fill-rule:nonzero;stroke:none"
           d="m 154.11448,-4400.4491 -64.486187,65.9185 -357.365503,14.4481 c 15.13429,20.5866 38.6894,41.1119 58.56061,49.5423 l 142.778168,60.9145 227.517182,-90.3636 -7.01158,-100.56 0.007,0.1001 z m -421.88933,80.3672 0.0376,-5e-4 c -0.086,-0.1198 -0.19601,-0.2387 -0.28379,-0.3637 0.088,0.125 0.15509,0.2406 0.24613,0.3642"
           inkscape:connector-curvature="0" />
        <path
           id="path3252"
           style="fill:#298bd1;fill-opacity:1;fill-rule:nonzero;stroke:none"
           d="m -399.26351,-4638.4816 -48.45207,232.5287 c -5.8105,14.8556 8.10079,35.1386 30.94391,45.0452 l 98.57994,42.8642 50.41688,-2.0384 c -4.85262,-6.6004 -8.85718,-13.2127 -11.56311,-19.4277 l -5.8076,-13.1564 -114.11271,-285.8102 -0.002,-0.012"
           inkscape:connector-curvature="0" />
        <path
           id="path3254"
           style="fill:#0f80cc;fill-opacity:1;fill-rule:nonzero;stroke:none"
           d="m -77.939202,-4762.3162 c -8.071598,1.0419 -15.611041,2.706 -22.069808,5.0458 l -14.33165,5.1299 -284.92285,113.6589 553.4332,237.9104 0.0306,-0.028 3.48278,-92.2409 -235.622423,-269.4767"
           inkscape:connector-curvature="0" />
        <path
           id="path3256"
           style="fill:#298bd1;fill-opacity:1;fill-rule:nonzero;stroke:none"
           d="m -1.677735,-4753.8056 c -20.157881,-8.756 -50.888493,-11.7577 -76.237942,-8.4822 l 235.598917,269.4483 -3.48279,92.2409 -0.0306,0.028 74.10231,-60.9929 -92.65632,-232.8881 -137.2934361,-59.3534 z m -76.637485,-8.4443 c 0.130772,-0.02 0.268759,-0.02 0.399531,-0.039 l -0.02372,-0.03 c -0.130277,0.012 -0.245234,0.049 -0.376006,0.069"
           inkscape:connector-curvature="0" />
        <path
           id="path3258"
           style="fill:#7bd2be;fill-opacity:1;fill-rule:nonzero;stroke:none"
           d="m -110.95899,-4800.0824 -98.91536,-42.1004 c -22.85976,-9.7105 -47.18793,-5.8794 -53.94949,8.529 l -135.43967,195.1722 284.92285,-113.6589 14.33165,-5.1299 c 6.458767,-2.3398 13.99821,-4.0039 22.069808,-5.0458 l -33.019788,-37.7662"
           inkscape:connector-curvature="0" />
        <path
           id="path3260"
           style="fill:#4fc3ae;fill-opacity:1;fill-rule:nonzero;stroke:none"
           d="m 892.0806,-4076.864 55.33781,23.7892 -114.11283,-285.81 -5.80751,-13.1564 c -2.70588,-6.2151 -6.71045,-12.8273 -11.563,-19.4277 l -357.40315,14.4487 -64.48624,65.9184 0.007,0.1001 498.02751,214.1376"
           inkscape:connector-curvature="0" />
        <path
           id="path3262"
           style="fill:#7bd2be;fill-opacity:1;fill-rule:nonzero;stroke:none"
           d="m 394.04568,-4291.1018 64.48624,-65.9184 357.36547,-14.4481 c -15.13439,-20.5868 -38.68949,-41.112 -58.56065,-49.5424 l -142.77809,-60.9144 -227.51727,90.3635 7.01159,100.5599 -0.007,-0.1001 z m 421.88939,-80.3671 -0.0395,4e-4 c 0.089,0.1198 0.19571,0.2387 0.28368,0.3637 -0.089,-0.125 -0.15518,-0.2407 -0.24612,-0.3643"
           inkscape:connector-curvature="0" />
        <path
           id="path3264"
           style="fill:#298bd1;fill-opacity:1;fill-rule:nonzero;stroke:none"
           d="m 947.42372,-4053.0694 48.45203,-232.5285 c 5.81045,-14.8556 -8.10083,-35.1387 -30.94388,-45.0452 l -98.57998,-42.8643 -50.41682,2.0385 c 4.85255,6.6004 8.85712,13.2126 11.563,19.4277 l 5.80751,13.1564 114.11283,285.81 0.0123,0.012"
           inkscape:connector-curvature="0" />
        <path
           id="path3266"
           style="fill:#0f80cc;fill-opacity:1;fill-rule:nonzero;stroke:none"
           d="m 626.09919,-3929.2346 c 8.07177,-1.042 15.61116,-2.7061 22.06998,-5.0459 l 14.33172,-5.1299 284.92283,-113.659 -553.43327,-237.9102 -0.0306,0.028 -3.48278,92.2408 235.62241,269.4767"
           inkscape:connector-curvature="0" />
        <path
           id="path3268"
           style="fill:#298bd1;fill-opacity:1;fill-rule:nonzero;stroke:none"
           d="m 549.83789,-3937.7452 c 20.15784,8.7558 50.88841,11.7577 76.23797,8.4821 l -235.59899,-269.4483 3.48279,-92.2409 0.0306,-0.028 -74.1023,60.9929 92.6563,232.8881 137.29345,59.3535 z m 76.6375,8.4442 c -0.13047,0.021 -0.26886,0.023 -0.39933,0.037 l 0.0198,0.029 c 0.12948,-0.014 0.24513,-0.045 0.37561,-0.067"
           inkscape:connector-curvature="0" />
        <path
           id="path3270"
           style="fill:#7bd2be;fill-opacity:1;fill-rule:nonzero;stroke:none"
           d="m 659.11911,-3891.4684 98.91535,42.1004 c 22.85974,9.7104 47.18805,5.8793 53.94941,-8.5292 l 135.43985,-195.1722 -284.92283,113.659 -14.33172,5.1299 c -6.45882,2.3398 -13.99821,4.0039 -22.06998,5.0459 l 33.01992,37.7662"
           inkscape:connector-curvature="0" />
        <path
           inkscape:connector-curvature="0"
           d="m 10.59681,-3725.4411 -23.79279,55.3362 -113.82231,-285.9259 -4.83681,-13.5432 c -2.31213,-6.3721 -3.95523,-13.9259 -4.97456,-22.0544 l 269.31373,-235.4058 92.15024,3.4718 0.0633,0.078 -214.101045,498.0432"
           style="fill:#4fc3ae;fill-opacity:1;fill-rule:nonzero;stroke:none"
           id="path3272" />
        <path
           inkscape:connector-curvature="0"
           d="m 224.63431,-4223.5624 -92.15024,-3.4718 -269.28599,235.3803 c -3.18044,-25.3524 -0.20728,-56.4537 8.41342,-76.243 l 61.707656,-142.4373 227.282474,-90.9522 64.09624,77.8019 -0.0642,-0.078 z m -361.46397,231.934 0.0277,-0.026 c 0.0198,0.1461 0.0217,0.3083 0.0445,0.4592 -0.0227,-0.151 -0.0534,-0.2812 -0.0722,-0.4338"
           style="fill:#7bd2be;fill-opacity:1;fill-rule:nonzero;stroke:none"
           id="path3274" />
        <path
           inkscape:connector-curvature="0"
           d="m -13.19598,-3670.0974 -195.14085,-135.4149 c -14.4374,-6.7835 -18.29631,-31.074 -8.53436,-53.9793 l 42.05069,-98.9295 37.99084,-33.2073 c 1.01933,8.1285 2.66243,15.6823 4.97456,22.0544 l 4.83681,13.5432 113.82231,285.9259 0.0037,0.012"
           style="fill:#298bd1;fill-opacity:1;fill-rule:nonzero;stroke:none"
           id="path3276" />
        <path
           inkscape:connector-curvature="0"
           d="m 305.19181,-3801.2978 c -6.57467,4.797 -13.19096,8.7766 -19.48797,11.522 l -13.93008,6.1373 -284.96974,113.5411 237.95433,-553.4143 0.0415,0 65.98875,64.5447 14.40357,357.6705"
           style="fill:#0f80cc;fill-opacity:1;fill-rule:nonzero;stroke:none"
           id="path3278" />
        <path
           inkscape:connector-curvature="0"
           d="m 354.68061,-3859.9416 c -8.60483,20.2227 -28.84129,43.5438 -49.49135,58.607 l -14.401,-357.6337 -65.98873,-64.5446 -0.0415,0 95.73998,-6.7185 92.98337,232.7576 -58.80106,137.531 z m -49.80747,58.8542 c 0.10997,-0.074 0.21143,-0.1676 0.31611,-0.2472 l 0.004,0.037 c -0.10404,0.079 -0.20876,0.136 -0.31868,0.2104"
           style="fill:#298bd1;fill-opacity:1;fill-rule:nonzero;stroke:none"
           id="path3280" />
        <path
           inkscape:connector-curvature="0"
           d="m 307.21172,-3751.1729 -42.81962,98.6061 c -9.90895,22.7744 -30.20009,36.7318 -45.02,30.9272 l -232.56808,-48.4578 284.96974,-113.5411 13.93008,-6.1373 c 6.29701,-2.7454 12.9133,-6.725 19.48797,-11.522 l 2.01991,50.1249"
           style="fill:#7bd2be;fill-opacity:1;fill-rule:nonzero;stroke:none"
           id="path3282" />
        <path
           inkscape:connector-curvature="0"
           d="m 645.85749,-4720.8266 33.37438,-33.3722 -0.12257,241.1373 -0.40922,11.2609 c -0.16606,5.3088 -1.16212,11.2836 -2.77892,17.4956 l -264.3261,93.1916 -66.06346,-29.2663 -0.0237,-0.075 300.34961,-300.372"
           style="fill:#4fc3ae;fill-opacity:1;fill-rule:nonzero;stroke:none"
           id="path3075-5" />
        <path
           inkscape:connector-curvature="0"
           d="m 345.53159,-4420.3797 66.06345,29.2663 264.29854,-93.1811 c -5.04168,19.3756 -16.23033,41.1496 -28.2471,53.0516 l -86.24462,85.7663 -191.8178,0.2482 -24.07621,-75.2265 0.0237,0.075 z m 330.38957,-63.9253 -0.0297,0.012 c 0.0297,-0.1124 0.0692,-0.2305 0.10083,-0.347 -0.0297,0.1161 -0.0395,0.2202 -0.0692,0.3367"
           style="fill:#7bd2be;fill-opacity:1;fill-rule:nonzero;stroke:none"
           id="path3077-3" />
        <path
           inkscape:connector-curvature="0"
           d="m 679.23414,-4754.2043 102.73845,155.1851 c 8.53983,9.1267 4.30013,27.926 -9.45154,41.7649 l -59.31274,59.8034 -37.28715,13.1459 c 1.6168,-6.212 2.61267,-12.1868 2.77882,-17.4956 l 0.40922,-11.2609 0.12257,-241.1373 0,-0.012"
           style="fill:#298bd1;fill-opacity:1;fill-rule:nonzero;stroke:none"
           id="path3079-6" />
        <path
           inkscape:connector-curvature="0"
           d="m 409.42707,-4751.0977 c 6.17727,-1.5836 12.14762,-2.5602 17.52757,-2.7312 l 11.91974,-0.4251 240.35976,0.05 -333.77814,333.7516 -0.0307,-0.012 -29.30052,-66.1262 93.30194,-264.5078"
           style="fill:#0f80cc;fill-opacity:1;fill-rule:nonzero;stroke:none"
           id="path3081-0" />
        <path
           inkscape:connector-curvature="0"
           d="m 356.39024,-4722.7743 c 12.13109,-12.2221 33.62712,-23.3242 53.028,-28.2957 l -93.29313,264.4801 29.30054,66.1263 0.0306,0.012 -71.63321,-22.891 -0.13799,-196.3921 82.70541,-83.0389 z m 53.32983,-28.3842 c -0.10157,0.02 -0.20254,0.059 -0.30187,0.089 l 0.009,-0.03 c 0.0988,-0.03 0.19147,-0.04 0.29298,-0.059"
           style="fill:#298bd1;fill-opacity:1;fill-rule:nonzero;stroke:none"
           id="path3083-7" />
        <path
           inkscape:connector-curvature="0"
           d="m 422.5017,-4788.167 59.77864,-59.3446 c 13.82061,-13.7012 32.63933,-17.9719 41.74167,-9.4466 l 155.21213,102.7539 -240.35976,-0.049 -11.91974,0.425 c -5.37995,0.171 -11.3503,1.1477 -17.52757,2.7314 l 13.07463,-37.0692"
           style="fill:#7bd2be;fill-opacity:1;fill-rule:nonzero;stroke:none"
           id="path3085-1" />
        <path
           id="path3087-6"
           style="fill:#4fc3ae;fill-opacity:1;fill-rule:nonzero;stroke:none"
           d="m -97.697317,-4720.8266 -33.374393,-33.3722 0.12245,241.1373 0.40941,11.2609 c 0.16606,5.3088 1.16207,11.2836 2.77881,17.4956 l 264.32613,93.1916 66.06346,-29.2663 0.0237,-0.075 -300.349661,-300.372"
           inkscape:connector-curvature="0" />
        <path
           id="path3089-3"
           style="fill:#7bd2be;fill-opacity:1;fill-rule:nonzero;stroke:none"
           d="m 202.62862,-4420.3797 -66.06345,29.2663 -264.29855,-93.1811 c 5.04169,19.3756 16.23033,41.1496 28.247169,53.0516 l 86.244577,85.7663 191.817784,0.2482 24.07619,-75.2265 -0.0237,0.075 z m -330.38958,-63.9253 0.0277,0.012 c -0.0277,-0.1124 -0.0732,-0.2305 -0.10107,-0.347 0.0277,0.1161 0.0435,0.2202 0.0731,0.3367"
           inkscape:connector-curvature="0" />
        <path
           id="path3091-8"
           style="fill:#298bd1;fill-opacity:1;fill-rule:nonzero;stroke:none"
           d="m -131.07391,-4754.2043 -102.73855,155.1851 c -8.5398,9.1267 -4.30008,27.926 9.45154,41.7649 l 59.31282,59.8034 37.28714,13.1459 c -1.61675,-6.212 -2.61273,-12.1868 -2.77881,-17.4956 l -0.40942,-11.2609 -0.12244,-241.1373 0,-0.012"
           inkscape:connector-curvature="0" />
        <path
           id="path3093-4"
           style="fill:#0f80cc;fill-opacity:1;fill-rule:nonzero;stroke:none"
           d="m 138.73314,-4751.0977 c -6.17727,-1.5836 -12.14764,-2.5602 -17.52758,-2.7312 l -11.91974,-0.4251 -240.35973,0.05 333.77812,333.7516 0.0306,-0.012 29.30054,-66.1262 -93.30196,-264.5078"
           inkscape:connector-curvature="0" />
        <path
           id="path3095-8"
           style="fill:#298bd1;fill-opacity:1;fill-rule:nonzero;stroke:none"
           d="m 191.76997,-4722.7743 c -12.13107,-12.2221 -33.6271,-23.3242 -53.02801,-28.2957 l 93.29314,264.4801 -29.30054,66.1263 -0.0306,0.012 71.63321,-22.891 0.13789,-196.3921 -82.70541,-83.0389 z m -53.32983,-28.3842 c 0.10156,0.02 0.20253,0.059 0.30187,0.089 l -0.009,-0.03 c -0.0988,-0.03 -0.19147,-0.04 -0.29298,-0.059"
           inkscape:connector-curvature="0" />
        <path
           id="path3097-0"
           style="fill:#7bd2be;fill-opacity:1;fill-rule:nonzero;stroke:none"
           d="m 125.6585,-4788.167 -59.778579,-59.3446 c -13.820663,-13.7012 -32.639418,-17.9719 -41.741722,-9.4466 l -155.212109,102.7539 240.35973,-0.049 11.91974,0.425 c 5.37994,0.171 11.35031,1.1477 17.52758,2.7314 l -13.07464,-37.0692"
           inkscape:connector-curvature="0" />
        <path
           id="path3099-4"
           style="fill:#4fc3ae;fill-opacity:1;fill-rule:nonzero;stroke:none"
           d="m 645.85749,-3970.7242 33.37438,33.3721 -0.12257,-241.1371 -0.40922,-11.261 c -0.16606,-5.3088 -1.16212,-11.2836 -2.77892,-17.4955 l -264.3261,-93.1917 -66.06346,29.2663 -0.0237,0.075 300.34961,300.3717"
           inkscape:connector-curvature="0" />
        <path
           id="path3101-6"
           style="fill:#7bd2be;fill-opacity:1;fill-rule:nonzero;stroke:none"
           d="m 345.53159,-4271.1711 66.06345,-29.2663 264.29854,93.1811 c -5.04168,-19.3754 -16.23033,-41.1496 -28.2471,-53.0516 l -86.24462,-85.7663 -191.8178,-0.2484 -24.07621,75.2265 0.0237,-0.075 z m 330.38957,63.9254 -0.0297,-0.012 c 0.0297,0.1124 0.0692,0.2304 0.10083,0.3469 -0.0297,-0.1161 -0.0395,-0.2203 -0.0692,-0.3365"
           inkscape:connector-curvature="0" />
        <path
           id="path3103-3"
           style="fill:#298bd1;fill-opacity:1;fill-rule:nonzero;stroke:none"
           d="m 679.23414,-3937.3466 102.73845,-155.185 c 8.53983,-9.1266 4.30013,-27.926 -9.45154,-41.7649 l -59.31274,-59.8034 -37.28715,-13.1458 c 1.6168,6.2119 2.61267,12.1867 2.77882,17.4955 l 0.40922,11.261 0.12257,241.1371 0,0.012"
           inkscape:connector-curvature="0" />
        <path
           id="path3105-8"
           style="fill:#0f80cc;fill-opacity:1;fill-rule:nonzero;stroke:none"
           d="m 409.42707,-3940.4531 c 6.17727,1.5836 12.14762,2.5602 17.52757,2.7312 l 11.91974,0.4251 240.35976,-0.05 -333.77814,-333.7517 -0.0307,0.012 -29.30052,66.1265 93.30194,264.5076"
           inkscape:connector-curvature="0" />
        <path
           id="path3107-6"
           style="fill:#298bd1;fill-opacity:1;fill-rule:nonzero;stroke:none"
           d="m 356.39024,-3968.7765 c 12.13109,12.2222 33.62712,23.3242 53.028,28.2957 l -93.29313,-264.4799 29.30054,-66.1265 0.0306,-0.012 -71.63321,22.891 -0.13799,196.3922 82.70541,83.0387 z m 53.32983,28.3841 c -0.10157,-0.022 -0.20254,-0.062 -0.30187,-0.088 l 0.009,0.028 c 0.0988,0.028 0.19147,0.038 0.29298,0.062"
           inkscape:connector-curvature="0" />
        <path
           id="path3109-9"
           style="fill:#7bd2be;fill-opacity:1;fill-rule:nonzero;stroke:none"
           d="m 422.5017,-3903.3839 59.77864,59.3449 c 13.82061,13.7008 32.63933,17.9718 41.74167,9.4464 l 155.21213,-102.754 -240.35976,0.049 -11.91974,-0.425 c -5.37995,-0.171 -11.3503,-1.1478 -17.52757,-2.7314 l 13.07463,37.0692"
           inkscape:connector-curvature="0" />
        <path
           inkscape:connector-curvature="0"
           d="m -97.697317,-3970.7242 -33.374393,33.3721 0.12245,-241.1371 0.40941,-11.261 c 0.16606,-5.3088 1.16207,-11.2836 2.77881,-17.4955 l 264.32613,-93.1917 66.06346,29.2663 0.0237,0.075 -300.349661,300.3717"
           style="fill:#4fc3ae;fill-opacity:1;fill-rule:nonzero;stroke:none"
           id="path3111-0" />
        <path
           inkscape:connector-curvature="0"
           d="m 202.62862,-4271.1711 -66.06345,-29.2663 -264.29855,93.1811 c 5.04169,-19.3754 16.23033,-41.1496 28.247169,-53.0516 l 86.244577,-85.7663 191.817784,-0.2484 24.07619,75.2265 -0.0237,-0.075 z m -330.38958,63.9254 0.0277,-0.012 c -0.0277,0.1124 -0.0732,0.2304 -0.10107,0.3469 0.0277,-0.1161 0.0435,-0.2203 0.0731,-0.3365"
           style="fill:#7bd2be;fill-opacity:1;fill-rule:nonzero;stroke:none"
           id="path3113-1" />
        <path
           inkscape:connector-curvature="0"
           d="m -131.07391,-3937.3466 -102.73855,-155.185 c -8.5398,-9.1266 -4.30008,-27.926 9.45154,-41.7649 l 59.31282,-59.8034 37.28714,-13.1458 c -1.61675,6.2119 -2.61273,12.1867 -2.77881,17.4955 l -0.40942,11.261 -0.12244,241.1371 0,0.012"
           style="fill:#298bd1;fill-opacity:1;fill-rule:nonzero;stroke:none"
           id="path3115-4" />
        <path
           inkscape:connector-curvature="0"
           d="m 138.73314,-3940.4531 c -6.17727,1.5836 -12.14764,2.5602 -17.52758,2.7312 l -11.91974,0.4251 -240.35973,-0.05 333.77812,-333.7517 0.0306,0.012 29.30054,66.1265 -93.30196,264.5076"
           style="fill:#0f80cc;fill-opacity:1;fill-rule:nonzero;stroke:none"
           id="path3117-1" />
        <path
           inkscape:connector-curvature="0"
           d="m 191.76997,-3968.7765 c -12.13107,12.2222 -33.6271,23.3242 -53.02801,28.2957 l 93.29314,-264.4799 -29.30054,-66.1265 -0.0306,-0.012 71.63321,22.891 0.13789,196.3922 -82.70541,83.0387 z m -53.32983,28.3841 c 0.10156,-0.022 0.20253,-0.062 0.30187,-0.088 l -0.009,0.028 c -0.0988,0.028 -0.19147,0.038 -0.29298,0.062"
           style="fill:#298bd1;fill-opacity:1;fill-rule:nonzero;stroke:none"
           id="path3119-3" />
        <path
           inkscape:connector-curvature="0"
           d="m 125.6585,-3903.3839 -59.778579,59.3449 c -13.820663,13.7008 -32.639418,17.9718 -41.741722,9.4464 l -155.212109,-102.754 240.35973,0.049 11.91974,-0.425 c 5.37994,-0.171 11.35031,-1.1478 17.52758,-2.7314 l -13.07464,37.0692"
           style="fill:#7bd2be;fill-opacity:1;fill-rule:nonzero;stroke:none"
           id="path3121-4" />
        <path
           id="path3140-6"
           style="fill:#4fc3ae;fill-opacity:1;fill-rule:nonzero;stroke:none"
           d="m 277.16039,-4873.8591 0.48375,-47.1945 168.6714,172.3287 7.58841,8.33 c 3.59673,3.9083 7.0667,8.873 10.25937,14.4418 l -123.58676,251.5537 -67.67064,25.3296 -0.0692,-0.037 4.32396,-424.7523"
           inkscape:connector-curvature="0" />
        <path
           id="path3142-2"
           style="fill:#7bd2be;fill-opacity:1;fill-rule:nonzero;stroke:none"
           d="m 272.90591,-4449.0698 67.67063,-25.3296 123.57441,-251.527 c 9.9586,17.3682 17.20514,40.7517 16.95119,57.6632 l -1.58081,121.6203 -136.84048,134.4203 -69.84442,-36.8842 0.0692,0.037 z m 191.2574,-276.8833 -0.0124,0.03 c -0.0593,-0.099 -0.10898,-0.2165 -0.1708,-0.3183 0.0623,0.1026 0.12331,0.1878 0.18316,0.2916"
           inkscape:connector-curvature="0" />
        <path
           id="path3144-3"
           style="fill:#298bd1;fill-opacity:1;fill-rule:nonzero;stroke:none"
           d="m 277.64184,-4921.059 181.99116,38.9465 c 12.48711,0.5426 22.61544,16.9379 22.47783,36.4469 l -0.5136,84.2272 -17.43392,35.4853 c -3.19268,-5.5688 -6.66264,-10.5335 -10.25938,-14.4418 l -7.5884,-8.33 -168.67142,-172.3287 -0.004,-0.012"
           inkscape:connector-curvature="0" />
        <path
           id="path3146-7"
           style="fill:#0f80cc;fill-opacity:1;fill-rule:nonzero;stroke:none"
           d="m 87.094466,-4730.0166 c 3.304088,-5.4542 6.885164,-10.3302 10.608304,-14.2177 l 8.21685,-8.6455 171.72222,-168.1792 -4.84091,471.9901 -0.0297,0.012 -67.20746,-26.7277 -118.469613,-254.2333"
           inkscape:connector-curvature="0" />
        <path
           id="path3148-3"
           style="fill:#298bd1;fill-opacity:1;fill-rule:nonzero;stroke:none"
           d="m 69.032554,-4672.6679 c 0.111571,-17.2201 7.696334,-40.1941 18.07491,-57.3228 l 118.456616,254.2072 67.20745,26.7278 0.0297,-0.012 -67.18731,33.7813 -137.542743,-140.185 0.961662,-117.1952 z m 18.228713,-57.5973 c -0.05733,0.089 -0.102181,0.1849 -0.153803,0.2748 l -0.01285,-0.03 c 0.0514,-0.089 0.109718,-0.1621 0.166752,-0.2481"
           inkscape:connector-curvature="0" />
        <path
           id="path3150-9"
           style="fill:#7bd2be;fill-opacity:1;fill-rule:nonzero;stroke:none"
           d="m 70.490887,-4765.6452 1.167197,-84.2256 c 0.283487,-19.4587 10.736629,-35.6797 23.204663,-35.9603 l 182.779093,-35.2279 -171.72222,168.1792 -8.21685,8.6455 c -3.72314,3.8875 -7.304216,8.7635 -10.608304,14.2177 l -16.603579,-35.6286"
           inkscape:connector-curvature="0" />
        <path
           inkscape:connector-curvature="0"
           d="m -253.9562,-4353.4852 -47.19452,-0.4805 168.8464,172.157 8.17335,7.757 c 3.83395,3.6759 8.72678,7.2466 14.22909,10.5523 l 254.02628,-118.4213 26.7068,-67.1391 -0.0356,-0.069 -424.75184,-4.3551"
           style="fill:#4fc3ae;fill-opacity:1;fill-rule:nonzero;stroke:none"
           id="path3152-6" />
        <path
           inkscape:connector-curvature="0"
           d="m 170.8312,-4349.0598 -26.7068,67.1391 -253.99924,118.4096 c 17.161122,10.3113 40.39162,18.0342 57.304818,18.1257 l 121.62709,0.9044 137.188032,-134.0657 -35.44947,-70.5834 0.0356,0.069 z m -280.73308,185.5604 0.0267,-0.012 c -0.0979,-0.061 -0.2138,-0.1137 -0.31502,-0.1775 0.10119,0.063 0.18484,0.1272 0.28803,0.1891"
           style="fill:#7bd2be;fill-opacity:1;fill-rule:nonzero;stroke:none"
           id="path3154-1" />
        <path
           inkscape:connector-curvature="0"
           d="m -301.15615,-4353.9682 35.22013,182.7489 c 0.28725,12.4956 16.4724,22.9568 35.98017,23.2178 l 84.21996,1.2074 35.83401,-16.7053 c -5.50231,-3.3057 -10.39514,-6.8764 -14.22909,-10.5523 l -8.17335,-7.757 -168.8464,-172.157 -0.004,-0.012"
           style="fill:#298bd1;fill-opacity:1;fill-rule:nonzero;stroke:none"
           id="path3156-3" />
        <path
           inkscape:connector-curvature="0"
           d="m -106.26053,-4540.5725 c -5.52069,3.1919 -10.46879,6.6727 -14.43138,10.3156 l -8.81153,8.0386 -171.65271,168.2501 471.99037,4.8034 0.0138,-0.028 -25.34907,-67.7395 -251.75964,-123.6391"
           style="fill:#0f80cc;fill-opacity:1;fill-rule:nonzero;stroke:none"
           id="path3158-3" />
        <path
           inkscape:connector-curvature="0"
           d="m -48.554696,-4557.4589 c -17.218752,-0.2404 -40.342918,6.8735 -57.680224,16.8999 l 251.73402,123.6257 25.34908,67.7395 -0.0138,0.028 35.14699,-66.4831 -137.345663,-140.3781 -117.190251,-1.4329 z m -57.957604,17.0481 c 0.088,-0.056 0.18711,-0.099 0.27736,-0.1483 l -0.0257,-0.012 c -0.09,0.05 -0.16379,0.1063 -0.25176,0.1616"
           style="fill:#298bd1;fill-opacity:1;fill-rule:nonzero;stroke:none"
           id="path3160-4" />
        <path
           inkscape:connector-curvature="0"
           d="m -141.54237,-4557.9005 -84.23175,-0.554 c -19.46054,-0.1137 -35.89163,10.0055 -36.42704,22.4651 l -38.95499,182.0212 171.65271,-168.2501 8.81153,-8.0386 c 3.96259,-3.6429 8.91069,-7.1237 14.43138,-10.3156 l -35.28184,-17.328"
           style="fill:#7bd2be;fill-opacity:1;fill-rule:nonzero;stroke:none"
           id="path3162-8" />
        <path
           inkscape:connector-curvature="0"
           d="m 802.11644,-4338.0655 47.19447,0.4804 -168.84635,-172.1571 -8.17338,-7.757 c -3.834,-3.6758 -8.72682,-7.2465 -14.22902,-10.5523 l -254.02635,118.4214 -26.70679,67.1389 0.0356,0.069 424.75183,4.3554"
           style="fill:#4fc3ae;fill-opacity:1;fill-rule:nonzero;stroke:none"
           id="path3164-0" />
        <path
           inkscape:connector-curvature="0"
           d="m 377.32902,-4342.491 26.70679,-67.1389 253.99927,-118.4096 c -17.16115,-10.3114 -40.39177,-18.0343 -57.30482,-18.1258 l -121.62712,-0.9045 -137.18801,134.0657 35.44943,70.5833 -0.0356,-0.069 z m 280.73314,-185.5604 -0.0296,0.012 c 0.0988,0.062 0.2135,0.1136 0.31531,0.1773 -0.10082,-0.063 -0.18484,-0.1274 -0.28763,-0.1892"
           style="fill:#7bd2be;fill-opacity:1;fill-rule:nonzero;stroke:none"
           id="path3166-0" />
        <path
           inkscape:connector-curvature="0"
           d="m 849.31635,-4337.5826 -35.22016,-182.7489 c -0.28764,-12.4956 -16.47238,-22.9568 -35.98015,-23.2178 l -84.21992,-1.2074 -35.83396,16.7053 c 5.5022,3.3059 10.39502,6.8765 14.22902,10.5523 l 8.17338,7.757 168.84635,172.1571 0.0124,0.012"
           style="fill:#298bd1;fill-opacity:1;fill-rule:nonzero;stroke:none"
           id="path3168-0" />
        <path
           inkscape:connector-curvature="0"
           d="m 654.42072,-4150.9782 c 5.52078,-3.192 10.46876,-6.6727 14.43135,-10.3157 l 8.81153,-8.0384 171.65275,-168.2503 -471.99037,-4.8034 -0.0138,0.028 25.34908,67.7395 251.75957,123.6393"
           style="fill:#0f80cc;fill-opacity:1;fill-rule:nonzero;stroke:none"
           id="path3170-9" />
        <path
           inkscape:connector-curvature="0"
           d="m 596.71488,-4134.0918 c 17.21878,0.2402 40.34294,-6.8736 57.68024,-16.8999 l -251.73403,-123.6258 -25.34906,-67.7395 0.0138,-0.028 -35.14699,66.4831 137.34563,140.3781 117.19031,1.433 z m 57.95759,-17.0481 c -0.089,0.056 -0.18681,0.099 -0.27775,0.1482 l 0.0296,0.012 c 0.089,-0.049 0.16409,-0.1063 0.25206,-0.1618"
           style="fill:#298bd1;fill-opacity:1;fill-rule:nonzero;stroke:none"
           id="path3172-8" />
        <path
           inkscape:connector-curvature="0"
           d="m 689.70251,-4133.6502 84.23177,0.5539 c 19.46058,0.1137 35.89169,-10.0055 36.42693,-22.4651 l 38.95514,-182.0212 -171.65275,168.2503 -8.81153,8.0384 c -3.96259,3.643 -8.91057,7.1237 -14.43135,10.3157 l 35.28179,17.328"
           style="fill:#7bd2be;fill-opacity:1;fill-rule:nonzero;stroke:none"
           id="path3174-3" />
        <path
           id="path3176-3"
           style="fill:#4fc3ae;fill-opacity:1;fill-rule:nonzero;stroke:none"
           d="m 270.99982,-3817.6918 -0.48375,47.1945 -168.6714,-172.3286 -7.588448,-8.33 c -3.596681,-3.9083 -7.066679,-8.8732 -10.25932,-14.4417 l 123.586748,-251.5538 67.67064,-25.3296 0.0692,0.037 -4.32393,424.7521"
           inkscape:connector-curvature="0" />
        <path
           id="path3178-5"
           style="fill:#7bd2be;fill-opacity:1;fill-rule:nonzero;stroke:none"
           d="m 275.2543,-4242.481 -67.67063,25.3296 -123.574387,251.527 c -9.958622,-17.3683 -17.205187,-40.7518 -16.951254,-57.6633 l 1.580851,-121.6201 136.84046,-134.4204 69.84442,36.8843 -0.0692,-0.037 z m -191.257385,276.8834 0.01285,-0.027 c 0.05832,0.099 0.108976,0.216 0.170804,0.3185 -0.06227,-0.1025 -0.123309,-0.1873 -0.18316,-0.2917"
           inkscape:connector-curvature="0" />
        <path
           id="path3180-3"
           style="fill:#298bd1;fill-opacity:1;fill-rule:nonzero;stroke:none"
           d="m 270.51837,-3770.4918 -181.991147,-38.9466 c -12.487135,-0.5427 -22.615461,-16.9379 -22.47782,-36.4469 l 0.513598,-84.2271 17.433914,-35.4852 c 3.19264,5.5685 6.662639,10.5334 10.25932,14.4417 l 7.588445,8.33 168.67141,172.3286 0.004,0"
           inkscape:connector-curvature="0" />
        <path
           id="path3182-8"
           style="fill:#0f80cc;fill-opacity:1;fill-rule:nonzero;stroke:none"
           d="m 461.06572,-3961.5341 c -3.30405,5.4543 -6.88516,10.3302 -10.60831,14.2175 l -8.21685,8.6454 -171.72219,168.1794 4.8409,-471.9901 0.0297,-0.012 67.20745,26.7277 118.46962,254.2333"
           inkscape:connector-curvature="0" />
        <path
           id="path3184-0"
           style="fill:#298bd1;fill-opacity:1;fill-rule:nonzero;stroke:none"
           d="m 479.12763,-4018.8829 c -0.11145,17.22 -7.69631,40.194 -18.07487,57.3229 l -118.45662,-254.2073 -67.20746,-26.7278 -0.0297,0.012 67.18729,-33.7814 137.54295,140.1856 -0.96164,117.1951 z m -18.22871,57.5971 c 0.0573,-0.086 0.10218,-0.185 0.1538,-0.2742 l 0.0128,0.026 c -0.0514,0.089 -0.10972,0.1616 -0.16685,0.2485"
           inkscape:connector-curvature="0" />
        <path
           id="path3186-7"
           style="fill:#7bd2be;fill-opacity:1;fill-rule:nonzero;stroke:none"
           d="m 477.66927,-3925.9057 -1.16712,84.2256 c -0.28349,19.4587 -10.73665,35.6797 -23.20468,35.9602 l -182.7791,35.2281 171.72219,-168.1794 8.21685,-8.6454 c 3.72315,-3.8873 7.30426,-8.7632 10.60831,-14.2175 l 16.60355,35.6284"
           inkscape:connector-curvature="0" />
        <text
           sodipodi:linespacing="125%"
           id="text3284"
           y="4291.3662"
           x="1083.194"
           style="font-size:741.91882324px;font-style:normal;font-variant:normal;font-weight:normal;font-stretch:normal;text-align:start;line-height:125%;letter-spacing:0px;word-spacing:0px;writing-mode:lr-tb;text-anchor:start;fill:#000000;fill-opacity:1;stroke:none;font-family:Ubuntu Light;-inkscape-font-specification:'Ubuntu Light,'"
           xml:space="preserve"
           transform="scale(1,-1)"><tspan
             y="4291.3662"
             x="1083.194"
             id="tspan3286"
             sodipodi:role="line">Distributed</tspan></text>
        <text
           xml:space="preserve"
           style="font-size:741.91882324px;font-style:normal;font-variant:normal;font-weight:normal;font-stretch:normal;text-align:start;line-height:125%;letter-spacing:0px;word-spacing:0px;writing-mode:lr-tb;text-anchor:start;fill:#000000;fill-opacity:1;stroke:none;font-family:Ubuntu Light;-inkscape-font-specification:'Ubuntu Light,'"
           x="1083.194"
           y="4967.0161"
           id="text3288"
           sodipodi:linespacing="125%"
           transform="scale(1,-1)"><tspan
             sodipodi:role="line"
             id="tspan3290"
             x="1083.194"
             y="4967.0161">Dart</tspan></text>
      </g>
    </g>
  </g>
</svg>
